<svg width="205" height="48" viewBox="0 0 205 48" fill="none" xmlns="http://www.w3.org/2000/svg">
<rect width="205" height="48" rx="6" />
<path d="M89.142 30H86.892L90.9886 18.3636H93.5909L97.6932 30H95.4432L92.3352 20.75H92.2443L89.142 30ZM89.2159 25.4375H95.3523V27.1307H89.2159V25.4375ZM102.108 30.1534C101.422 30.1534 100.809 29.9773 100.267 29.625C99.7254 29.2727 99.2973 28.7614 98.983 28.0909C98.6686 27.4205 98.5114 26.6061 98.5114 25.6477C98.5114 24.678 98.6705 23.8598 98.9886 23.1932C99.3106 22.5227 99.7443 22.017 100.29 21.6761C100.835 21.3314 101.443 21.1591 102.114 21.1591C102.625 21.1591 103.045 21.2462 103.375 21.4205C103.705 21.5909 103.966 21.7973 104.159 22.0398C104.352 22.2784 104.502 22.5038 104.608 22.7159H104.693V18.3636H106.756V30H104.733V28.625H104.608C104.502 28.8371 104.348 29.0625 104.148 29.3011C103.947 29.536 103.682 29.7367 103.352 29.9034C103.023 30.0701 102.608 30.1534 102.108 30.1534ZM102.682 28.4659C103.117 28.4659 103.489 28.3485 103.795 28.1136C104.102 27.875 104.335 27.5436 104.494 27.1193C104.653 26.6951 104.733 26.2008 104.733 25.6364C104.733 25.072 104.653 24.5814 104.494 24.1648C104.339 23.7481 104.108 23.4242 103.801 23.1932C103.498 22.9621 103.125 22.8466 102.682 22.8466C102.223 22.8466 101.841 22.9659 101.534 23.2045C101.227 23.4432 100.996 23.7727 100.841 24.1932C100.686 24.6136 100.608 25.0947 100.608 25.6364C100.608 26.1818 100.686 26.6686 100.841 27.0966C101 27.5208 101.233 27.8561 101.54 28.1023C101.85 28.3447 102.231 28.4659 102.682 28.4659ZM112.186 30.1534C111.5 30.1534 110.887 29.9773 110.345 29.625C109.804 29.2727 109.375 28.7614 109.061 28.0909C108.747 27.4205 108.589 26.6061 108.589 25.6477C108.589 24.678 108.749 23.8598 109.067 23.1932C109.389 22.5227 109.822 22.017 110.368 21.6761C110.913 21.3314 111.521 21.1591 112.192 21.1591C112.703 21.1591 113.124 21.2462 113.453 21.4205C113.783 21.5909 114.044 21.7973 114.237 22.0398C114.43 22.2784 114.58 22.5038 114.686 22.7159H114.771V18.3636H116.834V30H114.811V28.625H114.686C114.58 28.8371 114.427 29.0625 114.226 29.3011C114.025 29.536 113.76 29.7367 113.43 29.9034C113.101 30.0701 112.686 30.1534 112.186 30.1534ZM112.76 28.4659C113.196 28.4659 113.567 28.3485 113.874 28.1136C114.18 27.875 114.413 27.5436 114.572 27.1193C114.732 26.6951 114.811 26.2008 114.811 25.6364C114.811 25.072 114.732 24.5814 114.572 24.1648C114.417 23.7481 114.186 23.4242 113.879 23.1932C113.576 22.9621 113.203 22.8466 112.76 22.8466C112.302 22.8466 111.919 22.9659 111.612 23.2045C111.305 23.4432 111.074 23.7727 110.919 24.1932C110.764 24.6136 110.686 25.0947 110.686 25.6364C110.686 26.1818 110.764 26.6686 110.919 27.0966C111.078 27.5208 111.311 27.8561 111.618 28.1023C111.929 28.3447 112.309 28.4659 112.76 28.4659Z" fill="white"/>
</svg>
