<svg width="205" height="48" viewBox="0 0 205 48" fill="none" xmlns="http://www.w3.org/2000/svg">
<path d="M86.608 22.2898H84.483C84.4223 21.9413 84.3106 21.6326 84.1477 21.3636C83.9848 21.0909 83.7822 20.8598 83.5398 20.6705C83.2973 20.4811 83.0208 20.339 82.7102 20.2443C82.4034 20.1458 82.072 20.0966 81.7159 20.0966C81.0833 20.0966 80.5227 20.2557 80.0341 20.5739C79.5455 20.8883 79.1629 21.3504 78.8864 21.9602C78.6098 22.5663 78.4716 23.3068 78.4716 24.1818C78.4716 25.072 78.6098 25.822 78.8864 26.4318C79.1667 27.0379 79.5492 27.4962 80.0341 27.8068C80.5227 28.1136 81.0814 28.267 81.7102 28.267C82.0587 28.267 82.3845 28.2216 82.6875 28.1307C82.9943 28.036 83.2689 27.8977 83.5114 27.7159C83.7576 27.5341 83.964 27.3106 84.1307 27.0455C84.3011 26.7803 84.4186 26.4773 84.483 26.1364L86.608 26.1477C86.5284 26.7008 86.3561 27.2197 86.0909 27.7045C85.8295 28.1894 85.4867 28.6174 85.0625 28.9886C84.6383 29.3561 84.142 29.6439 83.5739 29.8523C83.0057 30.0568 82.375 30.1591 81.6818 30.1591C80.6591 30.1591 79.7462 29.9223 78.9432 29.4489C78.1402 28.9754 77.5076 28.2917 77.0455 27.3977C76.5833 26.5038 76.3523 25.4318 76.3523 24.1818C76.3523 22.928 76.5852 21.8561 77.0511 20.9659C77.517 20.072 78.1515 19.3883 78.9545 18.9148C79.7576 18.4413 80.6667 18.2045 81.6818 18.2045C82.3295 18.2045 82.9318 18.2955 83.4886 18.4773C84.0455 18.6591 84.5417 18.9261 84.9773 19.2784C85.4129 19.6269 85.7708 20.0549 86.0511 20.5625C86.3352 21.0663 86.5208 21.642 86.608 22.2898ZM90.9588 30.1761C90.4058 30.1761 89.9077 30.0777 89.4645 29.8807C89.0251 29.6799 88.6766 29.3845 88.419 28.9943C88.1652 28.6042 88.0384 28.1231 88.0384 27.5511C88.0384 27.0587 88.1293 26.6515 88.3111 26.3295C88.4929 26.0076 88.741 25.75 89.0554 25.5568C89.3698 25.3636 89.724 25.2178 90.1179 25.1193C90.5156 25.017 90.9266 24.9432 91.3509 24.8977C91.8622 24.8447 92.277 24.7973 92.5952 24.7557C92.9134 24.7102 93.1444 24.642 93.2884 24.5511C93.4361 24.4564 93.5099 24.3106 93.5099 24.1136V24.0795C93.5099 23.6515 93.383 23.3201 93.1293 23.0852C92.8755 22.8504 92.5099 22.733 92.0327 22.733C91.5289 22.733 91.1293 22.8428 90.8338 23.0625C90.5421 23.2822 90.3452 23.5417 90.2429 23.8409L88.3224 23.5682C88.474 23.0379 88.724 22.5947 89.0724 22.2386C89.4209 21.8788 89.8471 21.6098 90.3509 21.4318C90.8546 21.25 91.4115 21.1591 92.0213 21.1591C92.4418 21.1591 92.8603 21.2083 93.277 21.3068C93.6937 21.4053 94.0743 21.5682 94.419 21.7955C94.7637 22.0189 95.0402 22.3239 95.2486 22.7102C95.4607 23.0966 95.5668 23.5795 95.5668 24.1591V30H93.5895V28.8011H93.5213C93.3963 29.0436 93.2202 29.2708 92.9929 29.483C92.7694 29.6913 92.4872 29.8598 92.1463 29.9886C91.8092 30.1136 91.4134 30.1761 90.9588 30.1761ZM91.4929 28.6648C91.9058 28.6648 92.2637 28.5833 92.5668 28.4205C92.8698 28.2538 93.1027 28.0341 93.2656 27.7614C93.4323 27.4886 93.5156 27.1913 93.5156 26.8693V25.8409C93.4512 25.8939 93.3414 25.9432 93.1861 25.9886C93.0346 26.0341 92.8641 26.0739 92.6747 26.108C92.4853 26.142 92.2978 26.1723 92.1122 26.1989C91.9266 26.2254 91.7656 26.2481 91.6293 26.267C91.3224 26.3087 91.0478 26.3769 90.8054 26.4716C90.563 26.5663 90.3717 26.6989 90.2315 26.8693C90.0914 27.036 90.0213 27.2519 90.0213 27.517C90.0213 27.8958 90.1596 28.1818 90.4361 28.375C90.7126 28.5682 91.0649 28.6648 91.4929 28.6648ZM99.6918 24.8864V30H97.6349V21.2727H99.6009V22.7557H99.7031C99.9039 22.267 100.224 21.8788 100.663 21.5909C101.107 21.303 101.654 21.1591 102.305 21.1591C102.908 21.1591 103.432 21.2879 103.879 21.5455C104.33 21.803 104.679 22.1761 104.925 22.6648C105.175 23.1534 105.298 23.7462 105.294 24.4432V30H103.237V24.7614C103.237 24.178 103.086 23.7216 102.783 23.392C102.483 23.0625 102.069 22.8977 101.538 22.8977C101.179 22.8977 100.858 22.9773 100.578 23.1364C100.302 23.2917 100.084 23.517 99.9247 23.8125C99.7694 24.108 99.6918 24.4659 99.6918 24.8864ZM111.192 30.1705C110.321 30.1705 109.572 29.9792 108.947 29.5966C108.326 29.214 107.847 28.6856 107.51 28.0114C107.177 27.3333 107.01 26.553 107.01 25.6705C107.01 24.7841 107.18 24.0019 107.521 23.3239C107.862 22.642 108.343 22.1117 108.964 21.733C109.589 21.3504 110.328 21.1591 111.18 21.1591C111.889 21.1591 112.516 21.2898 113.061 21.5511C113.61 21.8087 114.048 22.1742 114.374 22.6477C114.699 23.1174 114.885 23.6667 114.93 24.2955H112.964C112.885 23.875 112.696 23.5246 112.396 23.2443C112.101 22.9602 111.705 22.8182 111.209 22.8182C110.788 22.8182 110.419 22.9318 110.101 23.1591C109.783 23.3826 109.535 23.7045 109.357 24.125C109.182 24.5455 109.095 25.0492 109.095 25.6364C109.095 26.2311 109.182 26.7424 109.357 27.1705C109.531 27.5947 109.775 27.9223 110.089 28.1534C110.408 28.3807 110.781 28.4943 111.209 28.4943C111.512 28.4943 111.783 28.4375 112.021 28.3239C112.264 28.2064 112.466 28.0379 112.629 27.8182C112.792 27.5985 112.904 27.3314 112.964 27.017H114.93C114.881 27.6345 114.699 28.1818 114.385 28.6591C114.071 29.1326 113.643 29.5038 113.101 29.7727C112.559 30.0379 111.923 30.1705 111.192 30.1705ZM120.483 30.1705C119.608 30.1705 118.852 29.9886 118.216 29.625C117.583 29.2576 117.097 28.7386 116.756 28.0682C116.415 27.3939 116.244 26.6004 116.244 25.6875C116.244 24.7898 116.415 24.0019 116.756 23.3239C117.1 22.642 117.581 22.1117 118.199 21.733C118.816 21.3504 119.542 21.1591 120.375 21.1591C120.913 21.1591 121.42 21.2462 121.898 21.4205C122.379 21.5909 122.803 21.8561 123.17 22.2159C123.542 22.5758 123.833 23.0341 124.045 23.5909C124.258 24.1439 124.364 24.803 124.364 25.5682V26.1989H117.21V24.8125H122.392C122.388 24.4186 122.303 24.0682 122.136 23.7614C121.97 23.4508 121.737 23.2064 121.438 23.0284C121.142 22.8504 120.797 22.7614 120.403 22.7614C119.983 22.7614 119.614 22.8636 119.295 23.0682C118.977 23.2689 118.729 23.5341 118.551 23.8636C118.377 24.1894 118.288 24.5473 118.284 24.9375V26.1477C118.284 26.6553 118.377 27.0909 118.562 27.4545C118.748 27.8144 119.008 28.0909 119.341 28.2841C119.674 28.4735 120.064 28.5682 120.511 28.5682C120.811 28.5682 121.081 28.5265 121.324 28.4432C121.566 28.3561 121.777 28.2292 121.955 28.0625C122.133 27.8958 122.267 27.6894 122.358 27.4432L124.278 27.6591C124.157 28.1667 123.926 28.6098 123.585 28.9886C123.248 29.3636 122.816 29.6553 122.29 29.8636C121.763 30.0682 121.161 30.1705 120.483 30.1705ZM128.161 18.3636V30H126.104V18.3636H128.161Z" fill="#7E8299"/>
<rect x="0.5" y="0.5" width="204" height="47" rx="5.5" stroke="black" stroke-opacity="0.2"/>
</svg>
