<svg width="20" height="20" viewBox="0 0 20 20" fill="none" xmlns="http://www.w3.org/2000/svg">
<path d="M17.4999 14.1667V6.66671H5.83325V14.1667H17.4999ZM17.4999 2.50004C17.9419 2.50004 18.3659 2.67564 18.6784 2.9882C18.991 3.30076 19.1666 3.72468 19.1666 4.16671V14.1667C19.1666 14.6087 18.991 15.0327 18.6784 15.3452C18.3659 15.6578 17.9419 15.8334 17.4999 15.8334H5.83325C5.39122 15.8334 4.9673 15.6578 4.65474 15.3452C4.34218 15.0327 4.16659 14.6087 4.16659 14.1667V4.16671C4.16659 3.72468 4.34218 3.30076 4.65474 2.9882C4.9673 2.67564 5.39122 2.50004 5.83325 2.50004H6.66659V0.833374H8.33325V2.50004H14.9999V0.833374H16.6666V2.50004H17.4999ZM14.6083 9.21671L10.9083 12.9167L8.67492 10.6834L9.55825 9.80004L10.9083 11.15L13.7249 8.33337L14.6083 9.21671ZM2.49992 17.5H14.1666V19.1667H2.49992C2.05789 19.1667 1.63397 18.9911 1.32141 18.6786C1.00885 18.366 0.833252 17.9421 0.833252 17.5V7.50004H2.49992V17.5Z" fill="black"/>
</svg>
