<svg width="212" height="228" viewBox="0 0 212 228" fill="none" xmlns="http://www.w3.org/2000/svg">
<g filter="url(#filter0_d_533_86)">
<rect x="24" y="20" width="164" height="180" rx="6" fill="black" fill-opacity="0.01"/>
</g>
<rect x="24" y="20" width="164" height="180" rx="6" fill="white"/>
<path d="M43.5 124.308C43.5 123.033 44.5332 122 45.8077 122H47.1923C48.4668 122 49.5 123.033 49.5 124.308V179C49.5 180.657 48.1569 182 46.5 182C44.8431 182 43.5 180.657 43.5 179V124.308Z" fill="#F3F3F3"/>
<path d="M72.5 124.308C72.5 123.033 73.5332 122 74.8077 122H76.1923C77.4668 122 78.5 123.033 78.5 124.308V179C78.5 180.657 77.1569 182 75.5 182C73.8431 182 72.5 180.657 72.5 179V124.308Z" fill="#F3F3F3"/>
<path d="M104.5 124.308C104.5 123.033 105.533 122 106.808 122H108.192C109.467 122 110.5 123.033 110.5 124.308V179C110.5 180.657 109.157 182 107.5 182C105.843 182 104.5 180.657 104.5 179V124.308Z" fill="#F3F3F3"/>
<path d="M134.5 124.308C134.5 123.033 135.533 122 136.808 122H138.192C139.467 122 140.5 123.033 140.5 124.308V179C140.5 180.657 139.157 182 137.5 182C135.843 182 134.5 180.657 134.5 179V124.308Z" fill="#F3F3F3"/>
<path d="M163.5 124.308C163.5 123.033 164.533 122 165.808 122H167.192C168.467 122 169.5 123.033 169.5 124.308V179C169.5 180.657 168.157 182 166.5 182C164.843 182 163.5 180.657 163.5 179V124.308Z" fill="#F3F3F3"/>
<path d="M43.5 161H49.5V179C49.5 180.657 48.1569 182 46.5 182C44.8431 182 43.5 180.657 43.5 179V161Z" fill="#00B8A9"/>
<path d="M72.5 135H78.5V179C78.5 180.657 77.1569 182 75.5 182C73.8431 182 72.5 180.657 72.5 179V135Z" fill="#00B8A9"/>
<path d="M104.5 153H110.5V179C110.5 180.657 109.157 182 107.5 182C105.843 182 104.5 180.657 104.5 179V153Z" fill="#00B8A9"/>
<path d="M134.5 164H140.5V179C140.5 180.657 139.157 182 137.5 182C135.843 182 134.5 180.657 134.5 179V164Z" fill="#00B8A9"/>
<path d="M163.5 146H169.5V179C169.5 180.657 168.157 182 166.5 182C164.843 182 163.5 180.657 163.5 179V146Z" fill="#00B8A9"/>
<path d="M45.8068 90V88.4659L51.5682 82.1591C52.2443 81.4205 52.8011 80.7784 53.2386 80.233C53.6761 79.6818 54 79.1648 54.2102 78.6818C54.4261 78.1932 54.5341 77.6818 54.5341 77.1477C54.5341 76.5341 54.3864 76.0028 54.0909 75.554C53.8011 75.1051 53.4034 74.7585 52.8977 74.5142C52.392 74.2699 51.8239 74.1477 51.1932 74.1477C50.5227 74.1477 49.9375 74.2869 49.4375 74.5653C48.9432 74.8381 48.5597 75.2216 48.2869 75.7159C48.0199 76.2102 47.8864 76.7898 47.8864 77.4545H45.875C45.875 76.4318 46.1108 75.5341 46.5824 74.7614C47.054 73.9886 47.696 73.3864 48.5085 72.9545C49.3267 72.5227 50.2443 72.3068 51.2614 72.3068C52.2841 72.3068 53.1903 72.5227 53.9801 72.9545C54.7699 73.3864 55.3892 73.9687 55.8381 74.7017C56.2869 75.4347 56.5114 76.25 56.5114 77.1477C56.5114 77.7898 56.3949 78.4176 56.1619 79.0312C55.9347 79.6392 55.5369 80.3182 54.9688 81.0682C54.4062 81.8125 53.625 82.7216 52.625 83.7955L48.7045 87.9886V88.125H56.8182V90H45.8068ZM66.1335 90.2386C65.4176 90.2273 64.7017 90.0909 63.9858 89.8295C63.2699 89.5682 62.6165 89.1278 62.0256 88.5085C61.4347 87.8835 60.9602 87.0398 60.6023 85.9773C60.2443 84.9091 60.0653 83.5682 60.0653 81.9545C60.0653 80.4091 60.2102 79.0398 60.5 77.8466C60.7898 76.6477 61.2102 75.6392 61.7614 74.821C62.3125 73.9972 62.9773 73.3722 63.7557 72.946C64.5398 72.5199 65.4233 72.3068 66.4062 72.3068C67.3835 72.3068 68.2528 72.5028 69.0142 72.8949C69.7813 73.2812 70.4063 73.821 70.8892 74.5142C71.3722 75.2074 71.6847 76.0057 71.8267 76.9091H69.7472C69.554 76.125 69.179 75.4744 68.6222 74.9574C68.0653 74.4403 67.3267 74.1818 66.4062 74.1818C65.054 74.1818 63.9886 74.7699 63.2102 75.946C62.4375 77.1222 62.0483 78.7727 62.0426 80.8977H62.179C62.4972 80.4148 62.875 80.0028 63.3125 79.6619C63.7557 79.3153 64.2443 79.0483 64.7784 78.8608C65.3125 78.6733 65.8778 78.5795 66.4744 78.5795C67.4744 78.5795 68.3892 78.8295 69.2188 79.3295C70.0483 79.8239 70.7131 80.5085 71.2131 81.3835C71.7131 82.2528 71.9631 83.25 71.9631 84.375C71.9631 85.4545 71.7216 86.4432 71.2386 87.3409C70.7557 88.233 70.0767 88.9432 69.2017 89.4716C68.3324 89.9943 67.3097 90.25 66.1335 90.2386ZM66.1335 88.3636C66.8494 88.3636 67.4915 88.1847 68.0597 87.8267C68.6335 87.4687 69.0852 86.9886 69.4148 86.3864C69.75 85.7841 69.9176 85.1136 69.9176 84.375C69.9176 83.6534 69.7557 82.9972 69.4318 82.4062C69.1136 81.8097 68.6733 81.3352 68.1108 80.983C67.554 80.6307 66.9176 80.4545 66.2017 80.4545C65.6619 80.4545 65.1591 80.5625 64.6932 80.7784C64.2273 80.9886 63.8182 81.2784 63.4659 81.6477C63.1193 82.017 62.8466 82.4403 62.6477 82.9176C62.4489 83.3892 62.3494 83.8864 62.3494 84.4091C62.3494 85.1023 62.5114 85.75 62.8352 86.3523C63.1648 86.9545 63.6136 87.4403 64.1818 87.8097C64.7557 88.179 65.4062 88.3636 66.1335 88.3636ZM81.451 72.5455V90H79.3374V74.7614H79.2351L74.9737 77.5909V75.4432L79.3374 72.5455H81.451Z" fill="#5E5873"/>
<path d="M44.233 53V42.8182H50.3778V43.9119H45.4659V47.3523H50.0597V48.446H45.4659V51.9062H50.4574V53H44.233ZM58.6854 45.3636L55.8615 53H54.6683L51.8445 45.3636H53.1172L55.2251 51.4489H55.3047L57.4126 45.3636H58.6854ZM63.1623 53.1591C62.4265 53.1591 61.7918 52.9967 61.2582 52.6719C60.7279 52.3438 60.3185 51.8864 60.0302 51.2997C59.7451 50.7098 59.6026 50.0237 59.6026 49.2415C59.6026 48.4593 59.7451 47.7699 60.0302 47.1733C60.3185 46.5734 60.7196 46.1061 61.2333 45.7713C61.7504 45.4332 62.3536 45.2642 63.043 45.2642C63.4407 45.2642 63.8335 45.3305 64.2212 45.4631C64.609 45.5956 64.962 45.8111 65.2802 46.1094C65.5984 46.4044 65.8519 46.7955 66.0408 47.2827C66.2298 47.7699 66.3242 48.3698 66.3242 49.0824V49.5795H60.4379V48.5653H65.131C65.131 48.1345 65.0449 47.75 64.8725 47.4119C64.7035 47.0739 64.4615 46.8071 64.1467 46.6115C63.8351 46.416 63.4672 46.3182 63.043 46.3182C62.5756 46.3182 62.1713 46.4342 61.8299 46.6662C61.4918 46.8949 61.2317 47.1932 61.0494 47.5611C60.8671 47.929 60.7759 48.3234 60.7759 48.7443V49.4205C60.7759 49.9972 60.8754 50.486 61.0742 50.8871C61.2764 51.2848 61.5565 51.5881 61.9144 51.7969C62.2724 52.0024 62.6883 52.1051 63.1623 52.1051C63.4705 52.1051 63.7489 52.062 63.9975 51.9759C64.2494 51.8864 64.4665 51.7538 64.6488 51.5781C64.8311 51.3991 64.9719 51.1771 65.0714 50.9119L66.2049 51.2301C66.0856 51.6146 65.8851 51.9527 65.6033 52.2443C65.3216 52.5327 64.9736 52.758 64.5593 52.9205C64.145 53.0795 63.6793 53.1591 63.1623 53.1591ZM69.2823 48.4062V53H68.109V45.3636H69.2425V46.5568H69.342C69.521 46.169 69.7927 45.8575 70.1573 45.6222C70.5219 45.3835 70.9925 45.2642 71.5692 45.2642C72.0863 45.2642 72.5387 45.3703 72.9265 45.5824C73.3143 45.7912 73.6159 46.1094 73.8313 46.5369C74.0468 46.9612 74.1545 47.4981 74.1545 48.1477V53H72.9812V48.2273C72.9812 47.6274 72.8254 47.16 72.5138 46.8253C72.2023 46.4872 71.7747 46.3182 71.2312 46.3182C70.8567 46.3182 70.5219 46.3994 70.2269 46.5618C69.9353 46.7242 69.7049 46.9612 69.5359 47.2727C69.3668 47.5843 69.2823 47.9621 69.2823 48.4062ZM79.6195 45.3636V46.358H75.6621V45.3636H79.6195ZM76.8155 43.5341H77.9888V50.8125C77.9888 51.1439 78.0369 51.3925 78.133 51.5582C78.2324 51.7206 78.3584 51.83 78.5108 51.8864C78.6666 51.9394 78.8307 51.9659 79.003 51.9659C79.1323 51.9659 79.2383 51.9593 79.3212 51.946C79.4041 51.9295 79.4703 51.9162 79.5201 51.9062L79.7587 52.9602C79.6792 52.9901 79.5681 53.0199 79.4256 53.0497C79.2831 53.0829 79.1025 53.0994 78.8837 53.0994C78.5523 53.0994 78.2275 53.0282 77.9093 52.8857C77.5944 52.7431 77.3326 52.526 77.1238 52.2344C76.9183 51.9427 76.8155 51.5748 76.8155 51.1307V43.5341ZM86.6568 47.0739L85.6028 47.3722C85.5365 47.1965 85.4387 47.0258 85.3095 46.8601C85.1835 46.6911 85.0112 46.5518 84.7924 46.4425C84.5737 46.3331 84.2936 46.2784 83.9522 46.2784C83.4849 46.2784 83.0955 46.3861 82.7839 46.6016C82.4757 46.8137 82.3216 47.0838 82.3216 47.4119C82.3216 47.7036 82.4276 47.9339 82.6397 48.103C82.8519 48.272 83.1833 48.4129 83.6341 48.5256L84.7676 48.804C85.4503 48.9697 85.9591 49.2232 86.2939 49.5646C86.6286 49.9027 86.796 50.3385 86.796 50.8722C86.796 51.3097 86.67 51.7008 86.4181 52.0455C86.1696 52.3902 85.8216 52.6619 85.3741 52.8608C84.9267 53.0597 84.4063 53.1591 83.813 53.1591C83.0342 53.1591 82.3895 52.9901 81.8791 52.652C81.3687 52.3139 81.0455 51.8201 80.9096 51.1705L82.0233 50.892C82.1293 51.303 82.3298 51.6113 82.6248 51.8168C82.9231 52.0223 83.3126 52.125 83.7931 52.125C84.34 52.125 84.7742 52.009 85.0957 51.777C85.4205 51.5417 85.5829 51.2599 85.5829 50.9318C85.5829 50.6667 85.4901 50.4446 85.3045 50.2656C85.1189 50.0833 84.8339 49.9474 84.4494 49.858L83.1767 49.5597C82.4773 49.3939 81.9636 49.1371 81.6355 48.7891C81.3107 48.4377 81.1483 47.9986 81.1483 47.4716C81.1483 47.0407 81.2692 46.6596 81.5112 46.3281C81.7565 45.9967 82.0895 45.7365 82.5105 45.5476C82.9347 45.3587 83.4153 45.2642 83.9522 45.2642C84.7079 45.2642 85.3012 45.4299 85.7321 45.7614C86.1663 46.0928 86.4745 46.5303 86.6568 47.0739Z" fill="#5E5873"/>
<defs>
<filter id="filter0_d_533_86" x="0" y="0" width="212" height="228" filterUnits="userSpaceOnUse" color-interpolation-filters="sRGB">
<feFlood flood-opacity="0" result="BackgroundImageFix"/>
<feColorMatrix in="SourceAlpha" type="matrix" values="0 0 0 0 0 0 0 0 0 0 0 0 0 0 0 0 0 0 127 0" result="hardAlpha"/>
<feOffset dy="4"/>
<feGaussianBlur stdDeviation="12"/>
<feColorMatrix type="matrix" values="0 0 0 0 0 0 0 0 0 0 0 0 0 0 0 0 0 0 0.06 0"/>
<feBlend mode="normal" in2="BackgroundImageFix" result="effect1_dropShadow_533_86"/>
<feBlend mode="normal" in="SourceGraphic" in2="effect1_dropShadow_533_86" result="shape"/>
</filter>
</defs>
</svg>
