<svg width="90" height="30" viewBox="0 0 89 28" fill="none" xmlns="http://www.w3.org/2000/svg">
<g clip-path="url(#clip0_166_7750)">
<path d="M77.6024 12.6232L74.0216 16.204C73.9023 16.3234 73.7829 16.383 73.6039 16.383C73.4248 16.383 73.3055 16.3234 73.1861 16.204L69.6053 12.6232C69.3666 12.3845 69.3666 12.0264 69.6053 11.7877C69.844 11.549 70.2021 11.549 70.4408 11.7877L73.6039 14.9507L76.7669 11.7877C77.0056 11.549 77.3637 11.549 77.6024 11.7877C77.8412 12.0264 77.8412 12.3845 77.6024 12.6232Z" fill="black"/>
<mask id="mask0_166_7750" style="mask-type:luminance" maskUnits="userSpaceOnUse" x="69" y="11" width="9" height="6">
<path d="M77.6024 12.6232L74.0216 16.204C73.9023 16.3234 73.7829 16.383 73.6039 16.383C73.4248 16.383 73.3055 16.3234 73.1861 16.204L69.6053 12.6232C69.3666 12.3845 69.3666 12.0264 69.6053 11.7877C69.844 11.549 70.2021 11.549 70.4408 11.7877L73.6039 14.9507L76.7669 11.7877C77.0056 11.549 77.3637 11.549 77.6024 11.7877C77.8412 12.0264 77.8412 12.3845 77.6024 12.6232Z" fill="white"/>
</mask>
<g mask="url(#mask0_166_7750)">
<rect x="66.4424" y="6.83435" width="15.3232" height="15.3232" fill="#B9B9C3"/>
</g>
<path d="M14.7978 11.1142V17.6248H14.0094V11.9407H13.9712L12.3817 12.9962V12.1951L14.0094 11.1142H14.7978ZM18.7937 17.7138C18.3148 17.7138 17.9068 17.5834 17.5698 17.3228C17.2329 17.06 16.9754 16.6795 16.7973 16.1815C16.6193 15.6813 16.5303 15.0773 16.5303 14.3695C16.5303 13.6659 16.6193 13.065 16.7973 12.567C16.9775 12.0668 17.236 11.6854 17.573 11.4226C17.9121 11.1577 18.319 11.0252 18.7937 11.0252C19.2685 11.0252 19.6743 11.1577 20.0113 11.4226C20.3504 11.6854 20.6089 12.0668 20.787 12.567C20.9671 13.065 21.0572 13.6659 21.0572 14.3695C21.0572 15.0773 20.9682 15.6813 20.7901 16.1815C20.6121 16.6795 20.3546 17.06 20.0176 17.3228C19.6807 17.5834 19.2727 17.7138 18.7937 17.7138ZM18.7937 17.0144C19.2685 17.0144 19.6372 16.7855 19.9 16.3277C20.1628 15.87 20.2942 15.2172 20.2942 14.3695C20.2942 13.8057 20.2338 13.3257 20.113 12.9294C19.9943 12.5331 19.8227 12.2311 19.598 12.0234C19.3755 11.8157 19.1074 11.7119 18.7937 11.7119C18.3233 11.7119 17.9556 11.9439 17.6906 12.4081C17.4257 12.8701 17.2933 13.5239 17.2933 14.3695C17.2933 14.9332 17.3526 15.4122 17.4713 15.8064C17.59 16.2006 17.7606 16.5005 17.9831 16.706C18.2078 16.9116 18.478 17.0144 18.7937 17.0144Z" fill="#B9B9C3"/>
</g>
<defs>
<clipPath id="clip0_166_7750">
<rect width="88.6248" height="26.856" fill="white" transform="translate(0.197266 0.567993)"/>
</clipPath>
</defs>
</svg>
