<svg width="164" height="58" viewBox="0 0 164 58" fill="none" xmlns="http://www.w3.org/2000/svg">
<g opacity="0.9">
<path fill-rule="evenodd" clip-rule="evenodd" d="M0 44.252C0 44.252 7.04527 42.2001 12.2544 36.3387C17.4636 30.4773 23.5384 24.9891 34.4163 27.9897C45.2943 30.9902 48.1818 31.8754 48.1818 31.8754C48.1818 31.8754 58.4172 35.6052 65.3678 25.1931C72.6953 15.0615 78.7533 11.7 78.7533 11.7C78.7533 11.7 84.8981 8.84525 90.7185 15.0438C96.5388 21.2424 102.321 26.837 102.321 26.837C102.321 26.837 110.759 33.5269 116.022 25.1931C121.286 16.8593 127.473 7.33486 127.473 7.33486C127.473 7.33486 133.683 -3.66743 146.187 1.83371C158.692 7.33486 164 7.33486 164 7.33486V53.7502C164 55.7764 162.358 57.4188 160.331 57.4188H3.6686C1.64249 57.4188 0 55.7764 0 53.7502V44.252Z" fill="url(#paint0_linear_160_1465)"/>
<path fill-rule="evenodd" clip-rule="evenodd" d="M0 44.252C0 44.252 7.04527 42.2001 12.2544 36.3387C17.4636 30.4773 23.5384 24.9891 34.4163 27.9897C45.2943 30.9902 48.1818 31.8754 48.1818 31.8754C48.1818 31.8754 58.4172 35.6052 65.3678 25.1931C72.6953 15.0615 78.7533 11.7 78.7533 11.7C78.7533 11.7 84.8981 8.84525 90.7185 15.0438C96.5388 21.2424 102.321 26.837 102.321 26.837C102.321 26.837 110.759 33.5269 116.022 25.1931C121.286 16.8593 127.473 7.33486 127.473 7.33486C127.473 7.33486 133.683 -3.66743 146.187 1.83371C158.692 7.33486 164 7.33486 164 7.33486V53.7502C164 55.7764 162.358 57.4188 160.331 57.4188H3.6686C1.64249 57.4188 0 55.7764 0 53.7502V44.252Z" fill="url(#paint1_linear_160_1465)"/>
</g>
<defs>
<linearGradient id="paint0_linear_160_1465" x1="0" y1="0" x2="0" y2="57.4188" gradientUnits="userSpaceOnUse">
<stop stop-color="#00B8A9"/>
<stop offset="1" stop-color="white" stop-opacity="0.01"/>
</linearGradient>
<linearGradient id="paint1_linear_160_1465" x1="0" y1="0" x2="0" y2="57.4188" gradientUnits="userSpaceOnUse">
<stop offset="0.0114183" stop-color="white" stop-opacity="0.01"/>
<stop offset="1" stop-opacity="0.01"/>
</linearGradient>
</defs>
</svg>


