<svg width="212" height="228" viewBox="0 0 212 228" fill="none" xmlns="http://www.w3.org/2000/svg">
<g filter="url(#filter0_d_160_1461)">
<rect x="24" y="20" width="164" height="180" rx="6" fill="black" fill-opacity="0.01"/>
</g>
<rect x="24" y="20" width="164" height="180" rx="6" fill="white"/>
<g opacity="0.6">
<path fill-rule="evenodd" clip-rule="evenodd" d="M24 187.252C24 187.252 31.0453 185.2 36.2544 179.339C41.4636 173.477 47.5384 167.989 58.4163 170.99C69.2943 173.99 72.1818 174.875 72.1818 174.875C72.1818 174.875 82.4172 178.605 89.3678 168.193C96.6953 158.062 102.753 154.7 102.753 154.7C102.753 154.7 108.898 151.845 114.718 158.044C120.539 164.242 126.321 169.837 126.321 169.837C126.321 169.837 134.759 176.527 140.022 168.193C145.286 159.859 151.473 150.335 151.473 150.335C151.473 150.335 157.683 139.333 170.187 144.834C182.692 150.335 188 150.335 188 150.335V196.75C188 198.776 186.358 200.419 184.331 200.419H27.6686C25.6425 200.419 24 198.776 24 196.75V187.252Z" fill="url(#paint0_linear_160_1461)"/>
<path fill-rule="evenodd" clip-rule="evenodd" d="M24 187.252C24 187.252 31.0453 185.2 36.2544 179.339C41.4636 173.477 47.5384 167.989 58.4163 170.99C69.2943 173.99 72.1818 174.875 72.1818 174.875C72.1818 174.875 82.4172 178.605 89.3678 168.193C96.6953 158.062 102.753 154.7 102.753 154.7C102.753 154.7 108.898 151.845 114.718 158.044C120.539 164.242 126.321 169.837 126.321 169.837C126.321 169.837 134.759 176.527 140.022 168.193C145.286 159.859 151.473 150.335 151.473 150.335C151.473 150.335 157.683 139.333 170.187 144.834C182.692 150.335 188 150.335 188 150.335V196.75C188 198.776 186.358 200.419 184.331 200.419H27.6686C25.6425 200.419 24 198.776 24 196.75V187.252Z" fill="url(#paint1_linear_160_1461)"/>
</g>
<circle cx="59" cy="55" r="23" fill="#00B8A9" fill-opacity="0.25"/>
<path fill-rule="evenodd" clip-rule="evenodd" d="M51.0159 50C51.0159 47.2 53.2247 45 56.0359 45C58.847 45 61.0558 47.2 61.0558 50C61.0558 52.8 58.847 55 56.0359 55C53.2247 55 51.0159 52.8 51.0159 50ZM65.0718 62V64C65.0718 64.6 64.6702 65 64.0678 65C63.4654 65 63.0638 64.6 63.0638 64V62C63.0638 60.3 61.7586 59 60.0518 59H52.0199C50.3132 59 49.008 60.3 49.008 62V64C49.008 64.6 48.6064 65 48.004 65C47.4016 65 47 64.6 47 64V62C47 59.2 49.2088 57 52.0199 57H60.0518C62.863 57 65.0718 59.2 65.0718 62ZM56.0359 53C54.3291 53 53.0239 51.7 53.0239 50C53.0239 48.3 54.3291 47 56.0359 47C57.7427 47 59.0478 48.3 59.0478 50C59.0478 51.7 57.7427 53 56.0359 53ZM67.2805 57.2C66.7785 57.1 66.1761 57.4 66.0757 57.9C65.9753 58.4 66.2765 59 66.7785 59.1C68.0837 59.4 68.9873 60.6 68.9873 62V64C68.9873 64.6 69.3889 65 69.9913 65C70.5937 65 70.9953 64.6 70.9953 64V62C71.0957 59.7 69.5897 57.7 67.2805 57.2ZM62.0598 45.9C62.2606 45.3 62.7626 45 63.2646 45.2C65.9753 45.8 67.5817 48.6 66.8789 51.4C66.4773 53.2 65.0718 54.5 63.2646 55H63.0638C62.5618 55 62.1602 54.7 62.0598 54.2C61.859 53.7 62.2606 53.1 62.7626 53C63.867 52.7 64.6702 51.9 64.9714 50.8C65.3729 49.1 64.369 47.5 62.7626 47.1C62.2606 47 61.9594 46.4 62.0598 45.9Z" fill="black"/>
<mask id="mask0_160_1461" style="mask-type:luminance" maskUnits="userSpaceOnUse" x="47" y="45" width="24" height="20">
<path fill-rule="evenodd" clip-rule="evenodd" d="M51.0159 50C51.0159 47.2 53.2247 45 56.0359 45C58.847 45 61.0558 47.2 61.0558 50C61.0558 52.8 58.847 55 56.0359 55C53.2247 55 51.0159 52.8 51.0159 50ZM65.0718 62V64C65.0718 64.6 64.6702 65 64.0678 65C63.4654 65 63.0638 64.6 63.0638 64V62C63.0638 60.3 61.7586 59 60.0518 59H52.0199C50.3132 59 49.008 60.3 49.008 62V64C49.008 64.6 48.6064 65 48.004 65C47.4016 65 47 64.6 47 64V62C47 59.2 49.2088 57 52.0199 57H60.0518C62.863 57 65.0718 59.2 65.0718 62ZM56.0359 53C54.3291 53 53.0239 51.7 53.0239 50C53.0239 48.3 54.3291 47 56.0359 47C57.7427 47 59.0478 48.3 59.0478 50C59.0478 51.7 57.7427 53 56.0359 53ZM67.2805 57.2C66.7785 57.1 66.1761 57.4 66.0757 57.9C65.9753 58.4 66.2765 59 66.7785 59.1C68.0837 59.4 68.9873 60.6 68.9873 62V64C68.9873 64.6 69.3889 65 69.9913 65C70.5937 65 70.9953 64.6 70.9953 64V62C71.0957 59.7 69.5897 57.7 67.2805 57.2ZM62.0598 45.9C62.2606 45.3 62.7626 45 63.2646 45.2C65.9753 45.8 67.5817 48.6 66.8789 51.4C66.4773 53.2 65.0718 54.5 63.2646 55H63.0638C62.5618 55 62.1602 54.7 62.0598 54.2C61.859 53.7 62.2606 53.1 62.7626 53C63.867 52.7 64.6702 51.9 64.9714 50.8C65.3729 49.1 64.369 47.5 62.7626 47.1C62.2606 47 61.9594 46.4 62.0598 45.9Z" fill="white"/>
</mask>
<g mask="url(#mask0_160_1461)">
<rect width="24" height="24" transform="translate(47 43)" fill="#00B8A9"/>
<rect x="47" y="43" width="24" height="24" fill="#00B8A9"/>
</g>
<path d="M43.2908 122.42V120.682L50.9612 108.545H52.2226V111.239H51.3703L45.5749 120.409V120.545H55.9044V122.42H43.2908ZM51.5067 126V121.892V121.082V108.545H53.5181V126H51.5067ZM59.0983 126V124.466L64.8597 118.159C65.5358 117.42 66.0926 116.778 66.5301 116.233C66.9676 115.682 67.2915 115.165 67.5017 114.682C67.7176 114.193 67.8256 113.682 67.8256 113.148C67.8256 112.534 67.6779 112.003 67.3824 111.554C67.0926 111.105 66.6949 110.759 66.1892 110.514C65.6835 110.27 65.1154 110.148 64.4847 110.148C63.8142 110.148 63.229 110.287 62.729 110.565C62.2347 110.838 61.8512 111.222 61.5784 111.716C61.3114 112.21 61.1779 112.79 61.1779 113.455H59.1665C59.1665 112.432 59.4023 111.534 59.8739 110.761C60.3455 109.989 60.9875 109.386 61.8 108.955C62.6182 108.523 63.5358 108.307 64.5529 108.307C65.5756 108.307 66.4818 108.523 67.2716 108.955C68.0614 109.386 68.6807 109.969 69.1296 110.702C69.5784 111.435 69.8029 112.25 69.8029 113.148C69.8029 113.79 69.6864 114.418 69.4534 115.031C69.2262 115.639 68.8284 116.318 68.2603 117.068C67.6978 117.812 66.9165 118.722 65.9165 119.795L61.996 123.989V124.125H70.1097V126H59.0983ZM79.2205 126.239C78.05 126.239 77.0159 126.031 76.1182 125.616C75.2262 125.196 74.5301 124.619 74.0301 123.886C73.5301 123.148 73.283 122.307 73.2887 121.364C73.283 120.625 73.4279 119.943 73.7233 119.318C74.0188 118.687 74.4222 118.162 74.9335 117.741C75.4506 117.315 76.0273 117.045 76.6637 116.932V116.83C75.8284 116.614 75.1637 116.145 74.6693 115.423C74.175 114.696 73.9307 113.869 73.9364 112.943C73.9307 112.057 74.1551 111.264 74.6097 110.565C75.0642 109.866 75.6892 109.315 76.4847 108.912C77.2858 108.509 78.1978 108.307 79.2205 108.307C80.2318 108.307 81.1353 108.509 81.9307 108.912C82.7262 109.315 83.3512 109.866 83.8057 110.565C84.2659 111.264 84.4989 112.057 84.5046 112.943C84.4989 113.869 84.246 114.696 83.746 115.423C83.2517 116.145 82.5955 116.614 81.7773 116.83V116.932C82.408 117.045 82.9762 117.315 83.4818 117.741C83.9875 118.162 84.3909 118.687 84.6921 119.318C84.9932 119.943 85.1466 120.625 85.1523 121.364C85.1466 122.307 84.8909 123.148 84.3853 123.886C83.8853 124.619 83.1892 125.196 82.2972 125.616C81.4108 126.031 80.3853 126.239 79.2205 126.239ZM79.2205 124.364C80.0103 124.364 80.6921 124.236 81.2659 123.98C81.8398 123.724 82.283 123.364 82.5955 122.898C82.908 122.432 83.0671 121.886 83.0728 121.261C83.0671 120.602 82.8966 120.02 82.5614 119.514C82.2262 119.009 81.7688 118.611 81.1892 118.321C80.6154 118.031 79.9591 117.886 79.2205 117.886C78.4762 117.886 77.8114 118.031 77.2262 118.321C76.6466 118.611 76.1892 119.009 75.854 119.514C75.5245 120.02 75.3625 120.602 75.3682 121.261C75.3625 121.886 75.5131 122.432 75.8199 122.898C76.1324 123.364 76.5784 123.724 77.158 123.98C77.7375 124.236 78.425 124.364 79.2205 124.364ZM79.2205 116.08C79.8455 116.08 80.3995 115.955 80.8824 115.705C81.371 115.455 81.7546 115.105 82.033 114.656C82.3114 114.207 82.4534 113.682 82.4591 113.08C82.4534 112.489 82.3142 111.974 82.0415 111.537C81.7688 111.094 81.3909 110.753 80.908 110.514C80.425 110.27 79.8625 110.148 79.2205 110.148C78.5671 110.148 77.996 110.27 77.5074 110.514C77.0188 110.753 76.6409 111.094 76.3739 111.537C76.1068 111.974 75.9762 112.489 75.9818 113.08C75.9762 113.682 76.1097 114.207 76.3824 114.656C76.6608 115.105 77.0443 115.455 77.533 115.705C78.0216 115.955 78.5841 116.08 79.2205 116.08Z" fill="#5E5873"/>
<path d="M49.9148 89.8182H51.1477V96.5597C51.1477 97.2557 50.9837 97.8771 50.6555 98.424C50.3307 98.9676 49.8717 99.3968 49.2784 99.7116C48.6851 100.023 47.9891 100.179 47.1903 100.179C46.3916 100.179 45.6955 100.023 45.1023 99.7116C44.509 99.3968 44.0483 98.9676 43.7202 98.424C43.3954 97.8771 43.233 97.2557 43.233 96.5597V89.8182H44.4659V96.4602C44.4659 96.9574 44.5753 97.3999 44.794 97.7876C45.0128 98.1721 45.3243 98.4754 45.7287 98.6974C46.1364 98.9162 46.6236 99.0256 47.1903 99.0256C47.7571 99.0256 48.2443 98.9162 48.652 98.6974C49.0597 98.4754 49.3712 98.1721 49.5866 97.7876C49.8054 97.3999 49.9148 96.9574 49.9148 96.4602V89.8182ZM58.8599 94.0739L57.8059 94.3722C57.7396 94.1965 57.6419 94.0258 57.5126 93.8601C57.3867 93.6911 57.2143 93.5518 56.9956 93.4425C56.7768 93.3331 56.4967 93.2784 56.1554 93.2784C55.688 93.2784 55.2986 93.3861 54.987 93.6016C54.6788 93.8137 54.5247 94.0838 54.5247 94.4119C54.5247 94.7036 54.6307 94.9339 54.8429 95.103C55.055 95.272 55.3864 95.4129 55.8372 95.5256L56.9707 95.804C57.6535 95.9697 58.1622 96.2232 58.497 96.5646C58.8317 96.9027 58.9991 97.3385 58.9991 97.8722C58.9991 98.3097 58.8732 98.7008 58.6213 99.0455C58.3727 99.3902 58.0247 99.6619 57.5772 99.8608C57.1298 100.06 56.6094 100.159 56.0162 100.159C55.2373 100.159 54.5926 99.9901 54.0822 99.652C53.5718 99.3139 53.2486 98.8201 53.1127 98.1705L54.2264 97.892C54.3324 98.303 54.533 98.6113 54.8279 98.8168C55.1262 99.0223 55.5157 99.125 55.9963 99.125C56.5431 99.125 56.9773 99.009 57.2988 98.777C57.6236 98.5417 57.786 98.2599 57.786 97.9318C57.786 97.6667 57.6932 97.4446 57.5076 97.2656C57.322 97.0833 57.037 96.9474 56.6525 96.858L55.3798 96.5597C54.6805 96.3939 54.1667 96.1371 53.8386 95.7891C53.5138 95.4377 53.3514 94.9986 53.3514 94.4716C53.3514 94.0407 53.4724 93.6596 53.7143 93.3281C53.9596 92.9967 54.2927 92.7365 54.7136 92.5476C55.1378 92.3587 55.6184 92.2642 56.1554 92.2642C56.911 92.2642 57.5043 92.4299 57.9352 92.7614C58.3694 93.0928 58.6776 93.5303 58.8599 94.0739ZM63.967 100.159C63.2312 100.159 62.5965 99.9967 62.0629 99.6719C61.5326 99.3438 61.1232 98.8864 60.8349 98.2997C60.5498 97.7098 60.4073 97.0237 60.4073 96.2415C60.4073 95.4593 60.5498 94.7699 60.8349 94.1733C61.1232 93.5734 61.5243 93.1061 62.038 92.7713C62.555 92.4332 63.1583 92.2642 63.8477 92.2642C64.2454 92.2642 64.6381 92.3305 65.0259 92.4631C65.4137 92.5956 65.7667 92.8111 66.0849 93.1094C66.4031 93.4044 66.6566 93.7955 66.8455 94.2827C67.0344 94.7699 67.1289 95.3698 67.1289 96.0824V96.5795H61.2425V95.5653H65.9357C65.9357 95.1345 65.8496 94.75 65.6772 94.4119C65.5082 94.0739 65.2662 93.8071 64.9513 93.6115C64.6398 93.416 64.2719 93.3182 63.8477 93.3182C63.3803 93.3182 62.976 93.4342 62.6346 93.6662C62.2965 93.8949 62.0363 94.1932 61.854 94.5611C61.6718 94.929 61.5806 95.3234 61.5806 95.7443V96.4205C61.5806 96.9972 61.68 97.486 61.8789 97.8871C62.0811 98.2848 62.3612 98.5881 62.7191 98.7969C63.0771 99.0024 63.493 99.1051 63.967 99.1051C64.2752 99.1051 64.5536 99.062 64.8022 98.9759C65.0541 98.8864 65.2712 98.7538 65.4535 98.5781C65.6358 98.3991 65.7766 98.1771 65.8761 97.9119L67.0096 98.2301C66.8903 98.6146 66.6897 98.9527 66.408 99.2443C66.1263 99.5327 65.7783 99.758 65.364 99.9205C64.9497 100.08 64.484 100.159 63.967 100.159ZM68.9137 100V92.3636H70.0472V93.517H70.1268C70.266 93.1392 70.5179 92.8326 70.8825 92.5973C71.247 92.362 71.658 92.2443 72.1154 92.2443C72.2016 92.2443 72.3093 92.246 72.4386 92.2493C72.5678 92.2526 72.6656 92.2576 72.7319 92.2642V93.4574C72.6921 93.4474 72.601 93.4325 72.4585 93.4126C72.3192 93.3894 72.1718 93.3778 72.016 93.3778C71.6448 93.3778 71.3133 93.4557 71.0217 93.6115C70.7333 93.764 70.5046 93.9761 70.3356 94.2479C70.1699 94.5163 70.087 94.8229 70.087 95.1676V100H68.9137ZM79.5318 94.0739L78.4778 94.3722C78.4115 94.1965 78.3137 94.0258 78.1845 93.8601C78.0585 93.6911 77.8862 93.5518 77.6674 93.4425C77.4487 93.3331 77.1686 93.2784 76.8272 93.2784C76.3599 93.2784 75.9705 93.3861 75.6589 93.6016C75.3507 93.8137 75.1966 94.0838 75.1966 94.4119C75.1966 94.7036 75.3026 94.9339 75.5147 95.103C75.7269 95.272 76.0583 95.4129 76.5091 95.5256L77.6426 95.804C78.3253 95.9697 78.8341 96.2232 79.1689 96.5646C79.5036 96.9027 79.671 97.3385 79.671 97.8722C79.671 98.3097 79.545 98.7008 79.2931 99.0455C79.0446 99.3902 78.6966 99.6619 78.2491 99.8608C77.8017 100.06 77.2813 100.159 76.688 100.159C75.9092 100.159 75.2645 99.9901 74.7541 99.652C74.2437 99.3139 73.9205 98.8201 73.7846 98.1705L74.8983 97.892C75.0043 98.303 75.2048 98.6113 75.4998 98.8168C75.7981 99.0223 76.1876 99.125 76.6681 99.125C77.215 99.125 77.6492 99.009 77.9707 98.777C78.2955 98.5417 78.4579 98.2599 78.4579 97.9318C78.4579 97.6667 78.3651 97.4446 78.1795 97.2656C77.9939 97.0833 77.7089 96.9474 77.3244 96.858L76.0517 96.5597C75.3523 96.3939 74.8386 96.1371 74.5105 95.7891C74.1857 95.4377 74.0233 94.9986 74.0233 94.4716C74.0233 94.0407 74.1442 93.6596 74.3862 93.3281C74.6315 92.9967 74.9645 92.7365 75.3855 92.5476C75.8097 92.3587 76.2903 92.2642 76.8272 92.2642C77.5829 92.2642 78.1762 92.4299 78.6071 92.7614C79.0413 93.0928 79.3495 93.5303 79.5318 94.0739Z" fill="#5E5873"/>
<defs>
<filter id="filter0_d_160_1461" x="0" y="0" width="212" height="228" filterUnits="userSpaceOnUse" color-interpolation-filters="sRGB">
<feFlood flood-opacity="0" result="BackgroundImageFix"/>
<feColorMatrix in="SourceAlpha" type="matrix" values="0 0 0 0 0 0 0 0 0 0 0 0 0 0 0 0 0 0 127 0" result="hardAlpha"/>
<feOffset dy="4"/>
<feGaussianBlur stdDeviation="12"/>
<feColorMatrix type="matrix" values="0 0 0 0 0 0 0 0 0 0 0 0 0 0 0 0 0 0 0.06 0"/>
<feBlend mode="normal" in2="BackgroundImageFix" result="effect1_dropShadow_160_1461"/>
<feBlend mode="normal" in="SourceGraphic" in2="effect1_dropShadow_160_1461" result="shape"/>
</filter>
<linearGradient id="paint0_linear_160_1461" x1="24" y1="143" x2="24" y2="200.419" gradientUnits="userSpaceOnUse">
<stop stop-color="#00B8A9"/>
<stop offset="1" stop-color="white" stop-opacity="0.01"/>
</linearGradient>
<linearGradient id="paint1_linear_160_1461" x1="24" y1="143" x2="24" y2="200.419" gradientUnits="userSpaceOnUse">
<stop offset="0.0114183" stop-color="white" stop-opacity="0.01"/>
<stop offset="1" stop-opacity="0.01"/>
</linearGradient>
</defs>
</svg>
