<svg width="29" height="28" viewBox="0 0 29 28" fill="none" xmlns="http://www.w3.org/2000/svg">
<path opacity="0.3" d="M20.4522 0.0471191H8.81594C4.46857 0.0471191 0.944336 3.57136 0.944336 7.91872V19.555C0.944336 23.9024 4.46857 27.4266 8.81594 27.4266H20.4522C24.7996 27.4266 28.3238 23.9024 28.3238 19.555V7.91872C28.3238 3.57136 24.7996 0.0471191 20.4522 0.0471191Z" fill="#A1A5B7"/>
<path d="M15.1411 15.4069C16.1542 15.4069 16.9755 14.5856 16.9755 13.5725C16.9755 12.5593 16.1542 11.738 15.1411 11.738C14.1279 11.738 13.3066 12.5593 13.3066 13.5725C13.3066 14.5856 14.1279 15.4069 15.1411 15.4069Z" fill="#A1A5B7"/>
<path d="M8.26851 15.4069C9.28163 15.4069 10.1029 14.5856 10.1029 13.5725C10.1029 12.5593 9.28163 11.738 8.26851 11.738C7.25538 11.738 6.43408 12.5593 6.43408 13.5725C6.43408 14.5856 7.25538 15.4069 8.26851 15.4069Z" fill="#A1A5B7"/>
<path d="M21.9995 15.4069C23.0126 15.4069 23.8339 14.5856 23.8339 13.5725C23.8339 12.5593 23.0126 11.738 21.9995 11.738C20.9863 11.738 20.165 12.5593 20.165 13.5725C20.165 14.5856 20.9863 15.4069 21.9995 15.4069Z" fill="#A1A5B7"/>
</svg>
